<?xml version="1.0" encoding="utf-8"?>
<!-- Generator: Adobe Illustrator 26.0.2, SVG Export Plug-In . SVG Version: 6.00 Build 0)  -->
<svg version="1.1" id="Layer_1" xmlns="http://www.w3.org/2000/svg" xmlns:xlink="http://www.w3.org/1999/xlink" x="0px" y="0px"
	 viewBox="0 0 95.51 15.53" style="enable-background:new 0 0 95.51 15.53;" xml:space="preserve">
<style type="text/css">
	.st0{fill:#ffffff;}
</style>
<path class="st0" d="M1.98,0.2c0.75,3.94,1.14,7.89,1.47,11.87c0,0-1.63-1.72-1.63-1.72c7.94-0.23,15.91-0.2,23.82,0.02
	c6.4-0.44,12.76,0.52,19,1.91c0,0-0.74,0.1-0.74,0.1c0.39-0.27,0.69-0.7,1.12-1.28c1.29-1.88,3.21-1.33,4.87-0.56
	c1.71,0.77,3.53,1.13,5.19,1.23c0.51,0.01,1-0.05,1.12-0.15c0.07-0.04-0.03-0.06-0.11,0.03c-0.05,0.02-0.1,0.07-0.11,0.12
	c-0.03,0-0.04,0.01-0.03,0.02l2.44-1.75c2.46,0.25,4.94,0.55,7.36,0.49c0.27-0.02,0.55-0.03,0.75-0.08
	c-0.19,0.02-0.48,0.19-0.63,0.37c0.75-1,1.14-2.23,2.02-3.39C70.56,3.54,75.92,4.9,78.53,8c0.87,0.95,1.6,1.95,2.2,3.13l-4.84,0.81
	c0.76-3.14,1.7-6.75,4.76-8.53c3.3-1.7,6.53,1.65,6.95,4.07c0.43,1.84,0.41,3.46,0.14,5.18c0,0-1.39-1.56-1.39-1.56
	c2.98,0.35,5.97,0.75,8.95,1.3c0.26,0.04,0.28,0.47-0.01,0.5c-3,0.46-5.99,0.77-8.98,1.04c-0.92,0.07-1.45-0.71-1.39-1.56
	c-0.17-1.79-0.37-4.26-2.03-5.09c-0.09,0-0.21-0.09-0.24-0.02c0.02,0.05,0.12,0.04,0.11,0.06c0.01-0.04-0.04,0.07-0.06,0.08
	c-0.03,0.01-0.08,0.1-0.13,0.18c-0.9,1.35-1.29,3.48-1.56,5.14c-0.2,1.41-1.5,2.38-2.91,2.18c-0.86-0.12-1.55-0.65-1.93-1.37
	c-0.76-1.31-2.13-2.67-3.08-3.04c-0.24-0.11-0.41-0.12-0.55-0.14c-0.12-0.01-0.3,0.04-0.23,0.01c0.01-0.01-0.1,0.02-0.28,0.24
	c-0.96,1.22-1.7,3.16-3.14,4.12c-0.91,0.63-2.11,0.67-3.13,0.64c-2.77-0.13-5.43-0.63-8.08-1.18c0,0,2.44-1.75,2.44-1.75
	c-1.04,4.71-6.71,2.99-9.56,1.51c-1.28-0.5-2.43-1.7-3.49-1.91c-0.75,0.43-1.26,1.34-2.24,1.87c-0.22,0.13-0.47,0.15-0.7,0.07
	c-4.89-1.65-10.4-2.33-15.45-1.09c-8.88,2.5-18.24,1.9-27.28,0.84C0.55,13.65-0.06,12.9,0,12.07c0.15-1.98,0.36-3.96,0.58-5.93
	c0.25-1.98,0.5-3.96,0.9-5.93C1.52-0.07,1.94-0.06,1.98,0.2L1.98,0.2z"/>
</svg>
